<?xml version="1.0" encoding="UTF-8"?>
<svg width="233px" height="85px" viewBox="0 0 233 85" version="1.1" xmlns="http://www.w3.org/2000/svg" xmlns:xlink="http://www.w3.org/1999/xlink">
    <!-- Generator: Sketch 54.1 (76490) - https://sketchapp.com -->
    <title>PerfectPass_StudentBehaviorManagement</title>
    <desc>Created with Sketch.</desc>
    <g id="Page-1" stroke="none" stroke-width="1" fill="none" fill-rule="evenodd">
        <g id="PerfectPass_StudentBehaviorManagement" transform="translate(0.000000, 1.000000)">
            <path d="M225.5,47.4 L139.2,47.4 C135.9,47.4 133.2,44.7 133.2,41.4 L133.2,6.1 C133.2,2.8 135.9,0.1 139.2,0.1 L214.4,0.1 C217.7,0.1 231.5,13.3 231.5,16.6 L231.5,41.3 C231.5,44.7 228.8,47.4 225.5,47.4 Z" id="Path" stroke="#000000" stroke-width="2" fill="#FFFFFF" fill-rule="nonzero"></path>
            <g id="Group" transform="translate(0.000000, 10.000000)" fill="#FFFFFF" fill-rule="nonzero">
                <path d="M12.4,19.1 C10,19.1 7.6,19.1 5.3,19.1 C5.3,21.6 5.3,24 5.3,26.5 C3.7,26.5 2.1,26.5 0.5,26.5 C0.5,18.1 0.5,9.7 0.5,1.3 C4.5,1.3 8.4,1.3 12.4,1.3 C24.7,1.2 24.8,19.1 12.4,19.1 Z M5.3,14.7 C7.7,14.7 10.1,14.7 12.4,14.7 C18.5,14.7 18.4,5.8 12.4,5.8 C10,5.8 7.6,5.8 5.3,5.8 C5.3,8.7 5.3,11.7 5.3,14.7 Z" id="Shape"></path>
                <path d="M28.4,19.2 C28.7,21.4 30.6,23 33.7,23 C35.3,23 37.4,22.4 38.5,21.3 C39.4,22.2 40.4,23.1 41.3,24.1 C39.4,26 36.4,27 33.7,27 C27.6,27 23.9,23.2 23.9,17.5 C23.9,12.1 27.6,8.2 33.3,8.2 C39.2,8.2 42.9,11.9 42.3,19.2 C37.7,19.2 33,19.2 28.4,19.2 Z M38.1,15.5 C37.8,13.2 36,12 33.5,12 C31.1,12 29.2,13.2 28.5,15.5 C31.7,15.5 34.9,15.5 38.1,15.5 Z" id="Shape"></path>
                <path d="M50.6,8.7 C50.7,9.4 50.8,10.1 50.9,10.8 C52.3,8.6 54.1,8.3 55.9,8.3 C57.7,8.3 59.5,9 60.5,10 C59.8,11.3 59.2,12.5 58.5,13.8 C57.6,13 56.8,12.6 55.3,12.6 C53,12.6 50.9,13.8 50.9,17.1 C50.9,20.2 50.9,23.3 50.9,26.5 C49.4,26.5 48,26.5 46.5,26.5 C46.5,20.6 46.5,14.7 46.5,8.8 C47.9,8.7 49.3,8.7 50.6,8.7 Z" id="Path"></path>
                <path d="M64.5,26.5 C64.5,22 64.5,17.4 64.5,12.9 C63.4,12.9 62.3,12.9 61.2,12.9 C61.2,11.6 61.2,10.3 61.2,9 C62.3,9 63.4,9 64.5,9 C64.5,8.6 64.5,8.2 64.5,7.8 C64.5,3 67.7,0.9 71.3,0.9 C72.8,0.9 74.5,1.4 75.9,2.3 C75.4,3.4 74.8,4.5 74.3,5.6 C73.4,5 72.5,4.7 71.6,4.7 C70.1,4.7 68.9,5.7 68.9,7.9 C68.9,8.3 68.9,8.7 68.9,9.1 C70.6,9.1 72.4,9.1 74.1,9.1 C74.1,10.4 74.1,11.7 74.1,13 C72.4,13 70.6,13 68.9,13 C68.9,17.5 68.9,22.1 68.9,26.6 C67.5,26.5 66,26.5 64.5,26.5 Z" id="Path"></path>
                <path d="M82.2,19.2 C82.5,21.4 84.4,23 87.5,23 C89.1,23 91.2,22.4 92.3,21.3 C93.2,22.2 94.2,23.1 95.1,24.1 C93.2,26 90.2,27 87.5,27 C81.4,27 77.7,23.2 77.7,17.5 C77.7,12.1 81.4,8.2 87.1,8.2 C93,8.2 96.7,11.9 96.1,19.2 C91.5,19.2 86.9,19.2 82.2,19.2 Z M91.9,15.5 C91.6,13.2 89.8,12 87.3,12 C84.9,12 83,13.2 82.3,15.5 C85.5,15.5 88.7,15.5 91.9,15.5 Z" id="Shape"></path>
                <path d="M115.6,24.2 C113.5,26.2 111.4,27 108.8,27 C103.7,27 99.4,23.9 99.4,17.6 C99.4,11.3 103.7,8.2 108.8,8.2 C111.3,8.2 113.3,8.9 115.2,10.8 C114.3,11.8 113.4,12.7 112.4,13.7 C111.4,12.8 110.1,12.3 108.8,12.3 C105.8,12.3 103.7,14.5 103.7,17.6 C103.7,21 106,22.8 108.7,22.8 C110.1,22.8 111.5,22.4 112.6,21.3 C113.6,22.3 114.6,23.2 115.6,24.2 Z" id="Path"></path>
                <path d="M124.6,3.7 C124.6,5.4 124.6,7.1 124.6,8.7 C126.2,8.7 127.9,8.7 129.5,8.7 C129.5,10 129.5,11.2 129.5,12.5 C127.9,12.5 126.2,12.5 124.6,12.5 C124.6,15.1 124.6,17.6 124.6,20.2 C124.6,21.9 125.5,22.7 126.9,22.7 C127.6,22.7 128.4,22.5 129,22.2 C129.4,23.4 129.8,24.7 130.2,25.9 C128.9,26.4 127.9,26.6 126.6,26.7 C122.7,26.8 120.2,24.6 120.2,20.2 C120.2,17.6 120.2,15.1 120.2,12.5 C119.1,12.5 118,12.5 116.9,12.5 C116.9,11.2 116.9,10 116.9,8.7 C118,8.7 119.1,8.7 120.2,8.7 C120.2,7.2 120.2,5.7 120.2,4.1 C121.7,4 123.2,3.9 124.6,3.7 Z" id="Path"></path>
            </g>
            <g id="Group" transform="translate(137.000000, 11.000000)" fill="#000000" fill-rule="nonzero">
                <path d="M2.2,16.8 L2.2,25.5 L0.3,25.5 L0.3,0.3 C4,0.3 7.7,0.3 11.4,0.3 C22.3,0.3 22.3,16.8 11.4,16.8 L2.2,16.8 Z M2.2,2.1 L2.2,15 L11.3,15 C19.7,15 19.7,2.1 11.3,2.1 L2.2,2.1 Z" id="Shape"></path>
                <path d="M40.7,7.7 C40.7,13.6 40.7,19.5 40.7,25.5 L38.9,25.5 L38.9,21.7 C37.2,24.5 34.5,25.8 31.6,25.8 C26.6,25.8 22.6,22.1 22.6,16.6 C22.6,11.1 26.7,7.5 31.6,7.5 C34.5,7.5 37.4,8.8 38.9,11.6 L38.9,7.7 L40.7,7.7 L40.7,7.7 Z M24.4,16.6 C24.4,21.1 27.6,24.1 31.7,24.1 C41.6,24.1 41.6,9.2 31.7,9.2 C27.6,9.2 24.4,12.1 24.4,16.6 Z" id="Shape"></path>
                <path d="M58.6,11 C56.8,9.4 55,9.1 53.1,9.1 C50.3,9.1 47.7,10.1 47.7,12.4 C47.8,14.8 50.9,15.2 53.1,15.6 C56.3,16.1 60.6,16.7 60.4,20.8 C60.3,24.7 56.2,25.8 53.1,25.8 C50,25.8 46.9,24.6 45.3,22.2 L46.6,21 C48.1,23.1 50.7,24 53.1,24 C55.3,24 58.5,23.4 58.6,20.6 C58.7,18 55.7,17.5 52.8,17.1 C49.3,16.5 45.9,15.9 45.9,12.3 C45.9,8.8 49.4,7.3 53,7.3 C55.6,7.3 57.9,8 59.6,9.7 L58.6,11 Z" id="Path"></path>
                <path d="M77.4,11 C75.6,9.4 73.8,9.1 71.9,9.1 C69.1,9.1 66.5,10.1 66.5,12.4 C66.6,14.8 69.7,15.2 71.9,15.6 C75.1,16.1 79.4,16.7 79.2,20.8 C79.1,24.7 75,25.8 71.9,25.8 C68.8,25.8 65.7,24.6 64.1,22.2 L65.4,21 C66.9,23.1 69.5,24 71.9,24 C74.1,24 77.3,23.4 77.4,20.6 C77.5,18 74.5,17.5 71.6,17.1 C68.1,16.5 64.7,15.9 64.7,12.3 C64.7,8.8 68.2,7.3 71.8,7.3 C74.4,7.3 76.7,8 78.4,9.7 L77.4,11 Z" id="Path"></path>
            </g>
            <polyline id="Path" stroke="#000000" stroke-width="2" fill="#FFFFFF" fill-rule="nonzero" points="231 16.6 215.5 16.6 215.5 1.3"></polyline>
            <path d="M24.4,62 L197.1,62" id="Path" stroke="#FFFFFF" stroke-width="2"></path>
            <g id="Group" transform="translate(23.000000, 71.000000)" fill="#FFFFFF" fill-rule="nonzero">
                <path d="M5.8,3 C5.5,2.5 4.7,2.1 3.8,2.1 C2.6,2.1 2.1,2.6 2.1,3.2 C2.1,3.9 3,4.1 4,4.3 C5.8,4.5 7.4,5 7.4,7 C7.4,8.9 5.7,9.7 3.9,9.7 C2.2,9.7 0.9,9.2 0.2,7.6 L1.5,6.9 C1.9,7.8 2.8,8.2 3.9,8.2 C4.9,8.2 5.8,7.9 5.8,6.9 C5.8,6.1 5,5.8 3.9,5.7 C2.2,5.5 0.6,5 0.6,3.2 C0.6,1.5 2.3,0.8 3.9,0.8 C5.2,0.8 6.6,1.2 7.2,2.5 L5.8,3 Z" id="Path"></path>
                <path d="M10.7,1.7 L10.7,3.4 L12.3,3.4 L12.3,4.7 L10.7,4.7 L10.7,7.3 C10.7,7.9 11,8.1 11.5,8.1 C11.7,8.1 12,8 12.2,7.9 L12.6,9.1 C12.2,9.3 11.8,9.3 11.4,9.4 C10.1,9.4 9.3,8.7 9.3,7.2 L9.3,4.6 L8.2,4.6 L8.2,3.3 L9.3,3.3 L9.3,1.8 L10.7,1.7 Z" id="Path"></path>
                <path d="M14.9,3.4 L14.9,6.5 C14.9,7.4 15.4,8.1 16.3,8.1 C17.2,8.1 17.8,7.3 17.8,6.4 L17.8,3.4 L19.3,3.4 L19.3,9.3 L18,9.3 L17.9,8.5 C17.3,9.1 16.7,9.4 15.9,9.4 C14.5,9.4 13.5,8.3 13.5,6.5 L13.5,3.4 L14.9,3.4 Z" id="Path"></path>
                <path d="M26.7,0.9 L26.7,9.3 L25.3,9.3 L25.2,8.5 C24.7,9.2 24,9.4 23.3,9.4 C21.6,9.4 20.3,8.2 20.3,6.3 C20.3,4.3 21.6,3.2 23.3,3.2 C23.9,3.2 24.9,3.5 25.2,4.1 L25.2,0.8 L26.7,0.8 L26.7,0.9 Z M21.8,6.4 C21.8,7.4 22.5,8.1 23.5,8.1 C24.4,8.1 25.2,7.4 25.2,6.4 C25.2,5.4 24.4,4.7 23.5,4.7 C22.5,4.6 21.8,5.3 21.8,6.4 Z" id="Shape"></path>
                <path d="M29.4,6.9 C29.5,7.6 30.1,8.2 31.2,8.2 C31.7,8.2 32.4,8 32.8,7.6 L33.7,8.5 C33.1,9.1 32.1,9.5 31.2,9.5 C29.2,9.5 27.9,8.2 27.9,6.3 C27.9,4.5 29.1,3.2 31,3.2 C33,3.2 34.2,4.4 34,6.9 L29.4,6.9 L29.4,6.9 Z M32.6,5.7 C32.5,4.9 31.9,4.5 31.1,4.5 C30.3,4.5 29.7,4.9 29.4,5.7 L32.6,5.7 Z" id="Shape"></path>
                <path d="M39.5,9.3 L39.5,6.2 C39.5,5.3 39,4.6 38.1,4.6 C37.2,4.6 36.6,5.4 36.6,6.3 L36.6,9.3 L35.1,9.3 L35.1,3.4 L36.4,3.4 L36.5,4.2 C37.1,3.6 37.7,3.3 38.4,3.3 C39.8,3.3 40.9,4.3 40.9,6.2 L40.9,9.3 L39.5,9.3 Z" id="Path"></path>
                <path d="M44,1.7 L44,3.4 L45.6,3.4 L45.6,4.7 L44,4.7 L44,7.3 C44,7.9 44.3,8.1 44.8,8.1 C45,8.1 45.3,8 45.5,7.9 L45.9,9.1 C45.5,9.3 45.1,9.3 44.7,9.4 C43.4,9.4 42.6,8.7 42.6,7.2 L42.6,4.6 L41.5,4.6 L41.5,3.3 L42.6,3.3 L42.6,1.8 L44,1.7 Z" id="Path"></path>
                <path d="M56.1,3.4 C56.1,4 55.8,4.7 55,5 C56,5.3 56.3,6.3 56.3,6.9 C56.3,8.8 54.9,9.4 53.2,9.4 C51.9,9.4 50.5,9.4 49.2,9.4 L49.2,1 C50.5,1 51.9,1 53.2,1 C54.9,0.9 56.1,1.7 56.1,3.4 Z M50.8,4.3 L53.2,4.3 C54.2,4.3 54.5,3.9 54.5,3.4 C54.5,3 54.2,2.4 53.2,2.4 L50.8,2.4 L50.8,4.3 Z M50.8,7.9 L53.2,7.9 C53.8,7.9 54.8,7.7 54.8,6.9 C54.8,6.1 53.9,5.7 53.2,5.7 L50.8,5.7 L50.8,7.9 Z" id="Shape"></path>
                <path d="M58.6,6.9 C58.7,7.6 59.3,8.2 60.4,8.2 C60.9,8.2 61.6,8 62,7.6 L62.9,8.5 C62.3,9.1 61.3,9.5 60.4,9.5 C58.4,9.5 57.1,8.2 57.1,6.3 C57.1,4.5 58.3,3.2 60.2,3.2 C62.2,3.2 63.4,4.4 63.2,6.9 L58.6,6.9 L58.6,6.9 Z M61.8,5.7 C61.7,4.9 61.1,4.5 60.3,4.5 C59.5,4.5 58.9,4.9 58.6,5.7 L61.8,5.7 Z" id="Shape"></path>
                <path d="M65.7,0.9 L65.7,4.2 C66.2,3.5 66.9,3.3 67.5,3.3 C69.2,3.3 69.9,4.4 69.9,6.2 L69.9,9.3 L68.4,9.3 L68.4,6.2 C68.4,5.1 67.8,4.7 67.1,4.7 C66.2,4.7 65.6,5.4 65.6,6.3 L65.6,9.3 L64.1,9.3 L64.1,0.9 L65.7,0.9 L65.7,0.9 Z" id="Path"></path>
                <path d="M75.9,3.4 L77.3,3.4 L77.3,9.3 L75.9,9.3 L75.8,8.4 C75.5,9.1 74.5,9.4 73.9,9.4 C72.1,9.4 70.9,8.3 70.9,6.3 C70.9,4.3 72.3,3.2 74,3.2 C74.8,3.2 75.5,3.6 75.9,4.2 L75.9,3.4 Z M72.4,6.4 C72.4,7.5 73.2,8.2 74.2,8.2 C76.5,8.2 76.5,4.6 74.2,4.6 C73.1,4.6 72.4,5.2 72.4,6.4 Z" id="Shape"></path>
                <polygon id="Path" points="84.3 3.4 81.8 9.3 80.2 9.3 77.7 3.4 79.3 3.4 80.1 5.4 81 7.9 81.9 5.4 82.7 3.4"></polygon>
                <path d="M86.6,1.7 C86.6,2.8 84.9,2.8 84.9,1.7 C84.9,0.6 86.6,0.6 86.6,1.7 Z M85,3.4 L85,9.3 L86.5,9.3 L86.5,3.4 L85,3.4 Z" id="Shape"></path>
                <path d="M93.8,6.4 C93.8,8.1 92.6,9.5 90.7,9.5 C88.8,9.5 87.6,8.1 87.6,6.4 C87.6,4.7 88.8,3.3 90.7,3.3 C92.6,3.3 93.8,4.7 93.8,6.4 Z M89.1,6.4 C89.1,7.3 89.6,8.1 90.7,8.1 C91.8,8.1 92.3,7.3 92.3,6.4 C92.3,5.5 91.7,4.6 90.7,4.6 C89.7,4.6 89.1,5.5 89.1,6.4 Z" id="Shape"></path>
                <path d="M96.2,3.4 L96.3,4.1 C96.8,3.4 97.4,3.3 98,3.3 C98.6,3.3 99.2,3.5 99.5,3.9 L98.8,5.2 C98.5,4.9 98.2,4.8 97.7,4.8 C96.9,4.8 96.2,5.2 96.2,6.3 L96.2,9.4 L94.7,9.4 L94.7,3.5 L96.2,3.5 L96.2,3.4 Z" id="Path"></path>
                <polygon id="Path" points="109.9 3.2 107.2 6.8 106.9 6.8 104.2 3.1 104.2 9.2 102.6 9.2 102.6 0.8 104.4 0.8 107 4.4 109.6 0.8 111.4 0.8 111.4 9.2 109.8 9.2 109.8 3.2"></polygon>
                <path d="M117.6,3.4 L119,3.4 L119,9.3 L117.6,9.3 L117.5,8.4 C117.2,9.1 116.2,9.4 115.6,9.4 C113.8,9.4 112.6,8.3 112.6,6.3 C112.6,4.3 114,3.2 115.7,3.2 C116.5,3.2 117.2,3.6 117.6,4.2 L117.6,3.4 Z M114.1,6.4 C114.1,7.5 114.9,8.2 115.9,8.2 C118.2,8.2 118.2,4.6 115.9,4.6 C114.9,4.6 114.1,5.2 114.1,6.4 Z" id="Shape"></path>
                <path d="M124.6,9.3 L124.6,6.2 C124.6,5.3 124.1,4.6 123.2,4.6 C122.3,4.6 121.7,5.4 121.7,6.3 L121.7,9.3 L120.2,9.3 L120.2,3.4 L121.5,3.4 L121.6,4.2 C122.2,3.6 122.8,3.3 123.5,3.3 C124.9,3.3 126,4.3 126,6.2 L126,9.3 L124.6,9.3 Z" id="Path"></path>
                <path d="M132.1,3.4 L133.5,3.4 L133.5,9.3 L132.1,9.3 L132,8.4 C131.7,9.1 130.7,9.4 130.1,9.4 C128.3,9.4 127.1,8.3 127.1,6.3 C127.1,4.3 128.5,3.2 130.2,3.2 C131,3.2 131.7,3.6 132.1,4.2 L132.1,3.4 Z M128.5,6.4 C128.5,7.5 129.3,8.2 130.3,8.2 C132.6,8.2 132.6,4.6 130.3,4.6 C129.3,4.6 128.5,5.2 128.5,6.4 Z" id="Shape"></path>
                <path d="M139.3,2.8 L140.4,3.6 L139.7,4.4 C140.2,4.9 140.3,5.5 140.3,6.2 C140.3,6.9 140,8 139.1,8.4 C140.1,8.9 140.3,9.6 140.3,10.4 C140.3,12 139.1,13 137.3,13 C135.6,13 134.3,12 134.3,10.4 L135.8,10.4 C135.8,11.2 136.5,11.7 137.3,11.7 C138.1,11.7 138.8,11.2 138.8,10.4 C138.8,9.6 138,9.2 137.3,9.2 C135.5,9.2 134.3,8.1 134.3,6.2 C134.3,4.4 135.6,3.2 137.3,3.2 C137.8,3.2 138.2,3.3 138.7,3.5 L139.3,2.8 Z M135.9,6.2 C135.9,7.2 136.6,7.8 137.4,7.8 C138.2,7.8 138.9,7.2 138.9,6.2 C138.9,5.2 138.2,4.5 137.4,4.5 C136.6,4.6 135.9,5.2 135.9,6.2 Z" id="Shape"></path>
                <path d="M142.6,6.9 C142.7,7.6 143.3,8.2 144.4,8.2 C144.9,8.2 145.6,8 146,7.6 L146.9,8.5 C146.3,9.1 145.3,9.5 144.4,9.5 C142.4,9.5 141.1,8.2 141.1,6.3 C141.1,4.5 142.3,3.2 144.2,3.2 C146.2,3.2 147.4,4.4 147.2,6.9 L142.6,6.9 L142.6,6.9 Z M145.8,5.7 C145.7,4.9 145.1,4.5 144.3,4.5 C143.5,4.5 142.9,4.9 142.6,5.7 L145.8,5.7 Z" id="Shape"></path>
                <path d="M152.1,9.3 L152.1,6.1 C152.1,5.3 151.7,4.6 150.9,4.6 C150.1,4.6 149.6,5.3 149.6,6.1 L149.6,9.3 L148.1,9.3 L148.1,3.4 L149.5,3.4 L149.6,4.1 C149.9,3.5 150.6,3.3 151.2,3.3 C151.9,3.3 152.6,3.6 153,4.4 C153.5,3.6 154.2,3.3 155,3.3 C156.7,3.3 157.5,4.3 157.5,6.1 L157.5,9.3 L156,9.3 L156,6.1 C156,5.3 155.7,4.7 154.9,4.7 C154.1,4.7 153.6,5.4 153.6,6.2 L153.6,9.4 L152.1,9.4 L152.1,9.3 Z" id="Path"></path>
                <path d="M160.2,6.9 C160.3,7.6 160.9,8.2 162,8.2 C162.5,8.2 163.2,8 163.6,7.6 L164.5,8.5 C163.9,9.1 162.9,9.5 162,9.5 C160,9.5 158.7,8.2 158.7,6.3 C158.7,4.5 159.9,3.2 161.8,3.2 C163.8,3.2 165,4.4 164.8,6.9 L160.2,6.9 L160.2,6.9 Z M163.4,5.7 C163.3,4.9 162.7,4.5 161.9,4.5 C161.1,4.5 160.5,4.9 160.2,5.7 L163.4,5.7 Z" id="Shape"></path>
                <path d="M170.3,9.3 L170.3,6.2 C170.3,5.3 169.8,4.6 168.9,4.6 C168,4.6 167.4,5.4 167.4,6.3 L167.4,9.3 L165.9,9.3 L165.9,3.4 L167.2,3.4 L167.3,4.2 C167.9,3.6 168.5,3.3 169.2,3.3 C170.6,3.3 171.7,4.3 171.7,6.2 L171.7,9.3 L170.3,9.3 Z" id="Path"></path>
                <path d="M174.8,1.7 L174.8,3.4 L176.4,3.4 L176.4,4.7 L174.8,4.7 L174.8,7.3 C174.8,7.9 175.1,8.1 175.6,8.1 C175.8,8.1 176.1,8 176.3,7.9 L176.7,9.1 C176.3,9.3 175.9,9.3 175.5,9.4 C174.2,9.4 173.4,8.7 173.4,7.2 L173.4,4.6 L172.3,4.6 L172.3,3.3 L173.4,3.3 L173.4,1.8 L174.8,1.7 Z" id="Path"></path>
            </g>
        </g>
    </g>
</svg>