<?xml version="1.0" encoding="utf-8"?>
<!-- Generator: Adobe Illustrator 20.1.0, SVG Export Plug-In . SVG Version: 6.00 Build 0)  -->
<svg version="1.1" id="Layer_1" xmlns="http://www.w3.org/2000/svg" xmlns:xlink="http://www.w3.org/1999/xlink" x="0px" y="0px"
	 viewBox="0 0 442.6 217.3" style="enable-background:new 0 0 442.6 217.3;" xml:space="preserve">
<style type="text/css">
	.st0{fill:#FFFFFF;}
	.st1{display:none;fill:#313131;}
	.st2{fill:none;stroke:#FFFFFF;stroke-width:0.8223;stroke-linecap:round;}
</style>
<g>
	<g>
		<g>
			<path class="st0" d="M91.2,104.9c-2.8,3.3-4.8,7.3-5.7,11.9C86.9,113.3,88.8,109.3,91.2,104.9z M441.8,80.5
				C432.9,26.1,323.8-3.5,247.3,3.9c-19,1.9-62.3,6.6-104.1,38.8c-26.9,20.7-42.9,44.8-52,62.1c5.4-6.5,13.7-10,22-9
				c10.7,1.4,19.7,10.3,21.4,21.8c13-17.6,53.6-67.6,122.5-81.5c68.1-13.8,157,8.9,166.2,51.5c10.3,47.5-47.4,101.5-128.9,120.6
				c-10.7,2.5-21.4,4.3-31.7,5.4v3.6c6.3-0.6,12.6-1.4,19-2.5C379.6,198.9,451.3,138.8,441.8,80.5z M260.8,215.5
				c0,1,0.8,1.8,1.8,1.8v-3.6C261.6,213.7,260.8,214.5,260.8,215.5z"/>
		</g>
	</g>
</g>
<g>
	<path class="st0" d="M88.6,126.5c-2.3-6.2-2-12.7,0.5-18.3c-4.6,6.4-6,14.8-3,22.6c4.7,12.5,18.8,18.7,31.4,14
		c6.4-2.4,11.2-7.2,13.7-13c-2.7,3.8-6.6,6.9-11.3,8.6C107.4,145.2,93.3,139,88.6,126.5z"/>
</g>
<circle class="st1" cx="108.9" cy="122.2" r="24.4"/>
<g>
	<path class="st0" d="M35.7,151.1c-7.6,0-16.4-4.3-16.4-12c0.1-18.1,35.8-51.2,35.8-61.9c0-2.8-3.2-4.7-10.4-4.7
		c-18.1,0-35.1,23.4-35.1,37c0,6.3,4.3,9.7,7.8,9.7c4.3,0,7.9-4.8,9.1-4.8c0,0,0.4,0.1,0.4,0.3c0,1.9-8.3,11.5-16.2,11.5
		c-6,0-10.7-6.1-10.7-12.3c0.1-18.1,28.6-46.3,51.6-46.3c10.6,0,16.4,4.2,16.4,11.6c0,18.5-31.1,47.1-31.1,62.6
		c0,3.7,2.3,5.2,5.2,5.2c16.6,0,46.9-43.7,46.9-61.8c0-6.5-5.7-4.2-5.7-11.4c0-3.2,2.6-5.7,5.8-5.7c3.5,0,7,2.7,7,8.4
		C96.2,96.7,64.5,151.1,35.7,151.1z"/>
</g>
<g>
	<path class="st0" d="M170.1,95.2c-0.7,2-24.6,34.2-24.6,40.4c0,1.4,0.7,2.2,1.8,2.2c4.8,0,15.8-14.3,18.4-14.3
		c0.2,0,0.3,0.1,0.3,0.3c0,1.8-16.6,20.8-26,20.8c-3.5,0-5.4-2.3-5.4-6.1c0-10.2,21.4-35.5,24.2-43.3l1.1-3h11.3L170.1,95.2z"/>
	<path class="st0" d="M193.4,95.2c-0.7,2-24.6,34.2-24.6,40.4c0,1.4,0.7,2.2,1.8,2.2c4.8,0,15.8-14.3,18.4-14.3
		c0.2,0,0.3,0.1,0.3,0.3c0,1.8-16.6,20.8-26,20.8c-3.5,0-5.4-2.3-5.4-6.1c0-10.2,21.4-35.5,24.2-43.3l1.1-3h11.3L193.4,95.2z"/>
	<path class="st0" d="M191.1,144.9c-5.9,0-10.5-2.2-10.5-7.4c0-9.9,17.3-26.4,31-26.4c4.2,0,8.3,1.4,8.3,4.9c0,8-14,15-22.9,15
		c-1.1,0-1.8-0.2-1.8-0.7c0-0.8,0.6-0.9,1.7-0.9c8.2,0,17.5-9.8,17.5-14.4c0-1.6-1.3-2.9-3-2.9c-7.1,0-21.4,19.7-21.5,26.6
		c0,2.9,4,3.3,5.5,3.3c11.9,0,30.3-19.7,32.3-19.7c0.1,0,0.2,0,0.2,0.1C227.8,124.4,207.8,144.9,191.1,144.9z"/>
	<path class="st0" d="M244.8,139.7c-5.7,8.8-18.5,25.2-27.8,25.2c-6,0-11.6-3.7-11.6-7.4c0-1.6,1-3.1,2.9-3.1c1.5,0,2.9,1,2.9,2.3
		c0,1.2-0.9,1.3-0.9,2.4c0,1.5,1.4,3.5,4.2,3.5c7.7,0,13.7-12.4,18.2-18.4c0,0-1.4,1.1-4.8,1.1c-4.6,0-10.8-1.9-10.8-7.7
		c0-5.9,2.5-8.6,14.4-26.2h9.5c-3.7,6.9-15,19.9-15,26.8c0,2,1.2,3,2.9,3c6.6,0,16.5-19.3,23.6-29.7h10.2L244.8,139.7z"/>
	<path class="st0" d="M267.2,145.2c-5.9,0-7.8-2.8-7.8-2.8l-1.8,1.9h-9.9c8.1-16.7,33-46,33-51c0-0.3-0.3-0.9-0.3-0.9H291
		c0.3,0.2,0.5,0.6,0.5,1c0,4.7-16.1,22.4-16.1,22.4s4.9-4.7,9.2-4.7c4.2,0,8.7,2.7,8.7,7.3C293.4,130.4,280.9,145.2,267.2,145.2z
		 M281,115.4c-4.8,0-19.2,19.8-19.2,25.6c0,1.2,0.8,2.2,2.1,2.2c5.6,0,19.6-17.5,19.6-24.8C283.5,116.7,282.5,115.4,281,115.4z"/>
	<path class="st0" d="M333.7,135.6c-5.2,6.1-8.8,9.1-14.1,9.1c-7,0-8.8-4.2-8.8-4.2s-2.6,4.8-9,4.8c-5.4,0-11.2-3-11.2-7.7
		c0-14.9,15-27.1,26.2-27.1c5.4,0,7.7,3.1,7.7,3.1l1.7-2.2h10.3c-4.1,7-15,21.1-15,25.6c0,2.1,1.2,3.5,3,3.5
		c5.3,0,16.4-17.9,19.2-17.9c0,0,0.3,0.2,0.3,0.3C344,123.3,338.3,130.1,333.7,135.6z M319.8,112.9c-5.7,0-19.5,17-19.5,24.6
		c0,1.7,1,3.3,2.6,3.3c4.6,0,19-20.3,19-25.7C322,113.8,321.2,112.9,319.8,112.9z"/>
	<path class="st0" d="M370.3,95.2c-0.7,2-24.6,34.2-24.6,40.4c0,1.4,0.7,2.2,1.8,2.2c4.8,0,15.8-14.3,18.4-14.3
		c0.2,0,0.3,0.1,0.3,0.3c0,1.8-16.6,20.8-26,20.8c-3.5,0-5.4-2.3-5.4-6.1c0-10.2,21.4-35.5,24.2-43.3l1.1-3h11.3L370.3,95.2z"/>
	<path class="st0" d="M393.7,95.2c-0.7,2-24.6,34.2-24.6,40.4c0,1.4,0.7,2.2,1.8,2.2c4.8,0,15.8-14.3,18.4-14.3
		c0.2,0,0.3,0.1,0.3,0.3c0,1.8-16.6,20.8-26,20.8c-3.5,0-5.4-2.3-5.4-6.1c0-10.2,21.4-35.5,24.2-43.3l1.1-3h11.3L393.7,95.2z"/>
</g>
<path class="st2" d="M96.5,132.1c4.4-0.5,10.9-7.1,11.4-12.5"/>
<path class="st2" d="M117.6,118.1c0.3,7.4-5.2,17-12.7,18.5"/>
<path class="st2" d="M115.8,137.6c5.6-2,10.1-8.9,9.6-15.2"/>
<path class="st2" d="M107.1,114.8c2.9-2.8,17.6-3.5,21.3,2.1"/>
<path class="st2" d="M103.8,106.8c3.5-4,14.4-4.5,21.1,0.7"/>
<path class="st2" d="M102.8,119.4c-3.9-2.3-5.7-11.6-1.7-17.3"/>
<path class="st2" d="M92.1,111.8c-2,4.7,2.1,12.7,4.9,13.1"/>
<g>
	<path class="st0" d="M236.1,70.5h-6v9.2l-1.2,0.1V57.1h7.5c5.1,0,8.1,2.4,8.1,6.7C244.5,68,241.3,70.5,236.1,70.5z M237,58.3h-6.9
		v11h6.4c4,0,6.6-2.1,6.6-5.5C243.2,60.4,240.8,58.3,237,58.3z"/>
	<path class="st0" d="M258.1,80.3c-7,0-12-5-12-11.9c0-7,5-11.9,12-11.9c7,0,12.1,5,12.1,11.9C270.2,75.4,265.1,80.3,258.1,80.3z
		 M258.1,57.7c-6.3,0-10.8,4.5-10.8,10.7c0,6.3,4.5,10.7,10.8,10.7c6.3,0,10.8-4.5,10.8-10.7C268.9,62.2,264.4,57.7,258.1,57.7z"/>
	<path class="st0" d="M287.7,79.9c-0.1-0.2-0.3-1.5-0.3-3.3c-1.8-4.5-4.2-7.6-7.5-7.6h-5.6v10.7l-1.2,0.1V57.1h7.9
		c4.6,0,7.4,2.3,7.4,6.1c0,3.1-1.8,5.5-5.3,6.2c3.5,1.4,4.6,3.8,5.8,6.9c0,1.7,0.1,2.7,0.4,3.2L287.7,79.9z M281.1,58.3h-6.8v10.3
		h6.7c3.8,0,6.2-1.9,6.2-5.1C287.2,60,285.1,58.3,281.1,58.3z"/>
	<path class="st0" d="M298.9,58.3v21.5l-1.2,0.1V58.3h-8l0.2-1.2h16.8v1.2H298.9z"/>
	<path class="st0" d="M322,79.8h-13.3V57l1.2-0.1v21.7h12.4L322,79.8z"/>
	<path class="st0" d="M343,80l-3.9-8.3H327l-4,8.3l-1.3-0.2l11.1-23h0.5l10.8,23L343,80z M333,59l-5.4,11.5h10.7L333,59z"/>
	<path class="st0" d="M364.1,80.1l-17-20.7v20.4l-1.2,0.1v-23h0.6l17,20.6V57l1.2-0.1v23.2H364.1z"/>
	<path class="st0" d="M375.4,79.8h-6.6V57.1h7.5c6.9,0,11.3,4.4,11.3,11.4C387.6,75.3,382.9,79.8,375.4,79.8z M376.1,58.3H370v20.4
		h5.3c6.8,0,11-3.9,11-10.2C386.4,62,382.6,58.3,376.1,58.3z"/>
</g>
<g>
	<path class="st0" d="M254.1,166.6l-2.7-5.6h-8.2l-2.7,5.6l-0.9-0.1l7.5-15.6h0.4l7.4,15.6L254.1,166.6z M247.4,152.3l-3.7,7.8h7.3
		L247.4,152.3z"/>
	<path class="st0" d="M261.4,166.8c-3.3,0-5.5-1.8-5.9-4.4l0.7-0.4c0.1,2.2,1.9,3.9,5.3,3.9c2.8,0,4.7-1.4,4.7-3.5
		c0-5.2-10.4-2-10.4-7.8c0-2.6,2.2-4.1,5.5-4.1c3.1,0,4.7,1.5,5.3,3.6l-0.6,0.4c-0.3-2.1-2-3.2-4.7-3.2c-2.8,0-4.7,1.2-4.7,3.3
		c0,5,10.4,1.8,10.4,7.8C267.2,165.1,264.9,166.8,261.4,166.8z"/>
	<path class="st0" d="M274.7,166.8c-3.3,0-5.5-1.8-5.9-4.4l0.7-0.4c0.1,2.2,1.9,3.9,5.3,3.9c2.8,0,4.7-1.4,4.7-3.5
		c0-5.2-10.4-2-10.4-7.8c0-2.6,2.2-4.1,5.5-4.1c3.1,0,4.7,1.5,5.3,3.6l-0.6,0.4c-0.3-2.1-2-3.2-4.7-3.2c-2.8,0-4.7,1.2-4.7,3.3
		c0,5,10.4,1.8,10.4,7.8C280.5,165.1,278.1,166.8,274.7,166.8z"/>
	<path class="st0" d="M290.2,166.8c-4.8,0-8.2-3.4-8.2-8.1c0-4.7,3.4-8.1,8.2-8.1c4.8,0,8.2,3.4,8.2,8.1
		C298.5,163.5,295,166.8,290.2,166.8z M290.2,151.4c-4.3,0-7.3,3-7.3,7.3c0,4.3,3,7.3,7.3,7.3c4.3,0,7.4-3,7.4-7.3
		C297.6,154.5,294.5,151.4,290.2,151.4z"/>
	<path class="st0" d="M307.8,166.8c-4.7,0-8.1-3.3-8.1-8c0-4.6,3.6-8.2,8.2-8.2c2.6,0,4.9,1.4,5.4,3.4l-0.2,0.7
		c-0.9-2.1-3-3.2-5.4-3.2c-4.2,0-7.3,3.2-7.3,7.3c0,4.2,3,7.3,7.1,7.3c2.7,0,4.9-1.5,5.6-4l0.2,0.7
		C312.8,165.3,310.6,166.8,307.8,166.8z"/>
	<path class="st0" d="M315.8,166.5V151l0.8-0.1v15.6L315.8,166.5z"/>
	<path class="st0" d="M332.6,166.6l-2.7-5.6h-8.2l-2.7,5.6l-0.9-0.1l7.5-15.6h0.4l7.4,15.6L332.6,166.6z M325.8,152.3l-3.7,7.8h7.3
		L325.8,152.3z"/>
	<path class="st0" d="M336.9,151.8v14.6l-0.8,0.1v-14.7h-5.4l0.2-0.8h11.5v0.8H336.9z"/>
	<path class="st0" d="M343.5,166.5V151l0.8-0.1v15.6L343.5,166.5z"/>
	<path class="st0" d="M355,166.8c-4.8,0-8.2-3.4-8.2-8.1c0-4.7,3.4-8.1,8.2-8.1c4.8,0,8.2,3.4,8.2,8.1
		C363.2,163.5,359.7,166.8,355,166.8z M355,151.4c-4.3,0-7.3,3-7.3,7.3c0,4.3,3,7.3,7.3,7.3c4.3,0,7.4-3,7.4-7.3
		C362.3,154.5,359.3,151.4,355,151.4z"/>
	<path class="st0" d="M377.6,166.7L366,152.6v13.9l-0.8,0.1v-15.7h0.4l11.6,14V151l0.8-0.1v15.8H377.6z"/>
</g>
</svg>
