<svg id="Layer_1" data-name="Layer 1" xmlns="http://www.w3.org/2000/svg" viewBox="0 0 442.62 217.33"><defs><style>.cls-1{fill:#fff;}.cls-2{fill:none;stroke:#fff;stroke-linecap:round;stroke-width:0.82px;}</style></defs><title>header-logo</title><path class="cls-1" d="M86.39,130.92a67.18,67.18,0,0,1,1.19-16A29.34,29.34,0,0,0,86.39,130.92Zm355.39-50.4C432.3,22.27,345.22-12,247.3,3.91c-84.85,13.81-150,60.81-159.72,111,3.67-10,12.47-16.88,21.29-17.07,10.93-.24,22.57,9.8,24.36,24.35C145.11,105,185.7,51,257.05,36.18,325.29,22,414,45.1,423.28,87.72c10.31,47.53-47.38,101.52-128.88,120.6a257.84,257.84,0,0,1-31.73,5.38v3.64q9.39-.93,19-2.48C379.56,198.91,451.26,138.77,441.78,80.52Zm-181,135a1.82,1.82,0,0,0,1.82,1.82v-3.63A1.82,1.82,0,0,0,260.83,215.5Z" transform="translate(0 0)"/><path class="cls-1" d="M88.56,126.48a24,24,0,0,1,.54-18.29,24.15,24.15,0,0,0,28.39,36.61,24.46,24.46,0,0,0,13.74-13,24.47,24.47,0,0,1-42.67-5.34Z" transform="translate(0 0)"/><path class="cls-1" d="M35.71,151.14c-7.58,0-16.45-4.33-16.45-12,.11-18.07,35.82-51.19,35.82-61.9,0-2.82-3.24-4.65-10.39-4.65-18.07,0-35.06,23.37-35.06,37,0,6.28,4.33,9.74,7.79,9.74,4.33,0,7.9-4.76,9.09-4.76,0,0,.43.11.43.33,0,1.95-8.33,11.47-16.23,11.47C4.76,126.36,0,120.3,0,114,.11,95.95,28.57,67.7,51.62,67.7c10.6,0,16.45,4.22,16.45,11.58,0,18.5-31.06,47.08-31.06,62.55,0,3.68,2.27,5.2,5.2,5.2,16.56,0,46.86-43.73,46.86-61.8,0-6.49-5.74-4.22-5.74-11.36a5.73,5.73,0,0,1,5.84-5.74c3.46,0,7,2.71,7,8.44C96.21,96.7,64.5,151.14,35.71,151.14Z" transform="translate(0 0)"/><path class="cls-1" d="M170.08,95.21c-.69,2-24.64,34.15-24.64,40.38,0,1.38.69,2.16,1.82,2.16,4.84,0,15.82-14.27,18.42-14.27.17,0,.35.09.35.26,0,1.82-16.6,20.75-26,20.75-3.46,0-5.45-2.34-5.45-6.05,0-10.2,21.36-35.54,24.21-43.32l1.12-3H171.2Z" transform="translate(0 0)"/><path class="cls-1" d="M193.42,95.21c-.69,2-24.64,34.15-24.64,40.38,0,1.38.69,2.16,1.82,2.16,4.84,0,15.82-14.27,18.42-14.27.17,0,.35.09.35.26,0,1.82-16.6,20.75-26,20.75-3.46,0-5.45-2.34-5.45-6.05,0-10.2,21.36-35.54,24.21-43.32l1.12-3h11.33Z" transform="translate(0 0)"/><path class="cls-1" d="M191.09,144.93c-5.88,0-10.46-2.25-10.46-7.35,0-9.94,17.29-26.37,31-26.37,4.24,0,8.3,1.38,8.3,4.93,0,8-14,15-22.91,15-1.12,0-1.82-.17-1.82-.69,0-.78.61-.86,1.73-.86,8.21,0,17.47-9.77,17.47-14.44a2.87,2.87,0,0,0-3-2.85c-7.09,0-21.44,19.71-21.53,26.63,0,2.85,4,3.29,5.53,3.29,11.93,0,30.35-19.71,32.25-19.71.09,0,.17,0,.17.09C227.84,124.35,207.78,144.93,191.09,144.93Z" transform="translate(0 0)"/><path class="cls-1" d="M244.79,139.66c-5.71,8.82-18.5,25.16-27.76,25.16-6,0-11.59-3.72-11.59-7.44a2.86,2.86,0,0,1,2.94-3.11,2.63,2.63,0,0,1,2.85,2.34c0,1.21-.87,1.3-.87,2.42a3.92,3.92,0,0,0,4.24,3.54c7.7,0,13.66-12.36,18.24-18.42,0,0-1.38,1.12-4.76,1.12-4.58,0-10.81-1.9-10.81-7.7s2.51-8.56,14.44-26.2h9.51c-3.72,6.92-15,19.89-15,26.81a2.73,2.73,0,0,0,2.85,3c6.57,0,16.51-19.28,23.61-29.74h10.2Z" transform="translate(0 0)"/><path class="cls-1" d="M267.18,145.19c-5.88,0-7.78-2.77-7.78-2.77l-1.82,1.9h-9.94c8.13-16.69,33-46,33-51a2.12,2.12,0,0,0-.35-.86H291a1.08,1.08,0,0,1,.52,1c0,4.67-16.08,22.4-16.08,22.4s4.93-4.67,9.25-4.67,8.73,2.68,8.73,7.35C293.38,130.4,280.93,145.19,267.18,145.19ZM281,115.36c-4.76,0-19.2,19.8-19.2,25.59a2.09,2.09,0,0,0,2.08,2.25c5.62,0,19.63-17.47,19.63-24.82A2.76,2.76,0,0,0,281,115.36Z" transform="translate(0 0)"/><path class="cls-1" d="M333.67,135.59c-5.19,6.14-8.82,9.08-14.09,9.08-7,0-8.82-4.15-8.82-4.15a10.31,10.31,0,0,1-9,4.75c-5.45,0-11.24-3-11.24-7.7,0-14.87,15-27.06,26.2-27.06,5.36,0,7.7,3.11,7.7,3.11l1.73-2.16h10.29c-4.06,7-15,21.1-15,25.59,0,2.07,1.21,3.54,3,3.54,5.27,0,16.43-17.9,19.2-17.9,0,0,.34.17.34.35S338.26,130.15,333.67,135.59Zm-13.83-22.74c-5.71,0-19.45,17-19.45,24.64,0,1.73,1,3.29,2.59,3.29,4.58,0,19-20.32,19-25.68A2.06,2.06,0,0,0,319.84,112.85Z" transform="translate(0 0)"/><path class="cls-1" d="M370.34,95.21c-.69,2-24.64,34.15-24.64,40.38,0,1.38.69,2.16,1.82,2.16,4.84,0,15.82-14.27,18.42-14.27.17,0,.35.09.35.26,0,1.82-16.6,20.75-26,20.75-3.46,0-5.45-2.34-5.45-6.05,0-10.2,21.36-35.54,24.21-43.32l1.12-3h11.33Z" transform="translate(0 0)"/><path class="cls-1" d="M393.68,95.21C393,97.2,369,129.37,369,135.59c0,1.38.69,2.16,1.82,2.16,4.84,0,15.82-14.27,18.42-14.27.17,0,.35.09.35.26,0,1.82-16.6,20.75-26,20.75-3.46,0-5.45-2.34-5.45-6.05,0-10.2,21.36-35.54,24.21-43.32l1.12-3h11.33Z" transform="translate(0 0)"/><path class="cls-2" d="M96.48,132.14c4.4-.52,10.89-7.13,11.39-12.47" transform="translate(0 0)"/><path class="cls-2" d="M117.61,118.15c.28,7.39-5.17,17-12.67,18.53" transform="translate(0 0)"/><path class="cls-2" d="M115.83,137.57c5.62-2,10.14-8.87,9.58-15.2" transform="translate(0 0)"/><path class="cls-2" d="M107.13,114.81c2.86-2.84,17.56-3.51,21.29,2.06" transform="translate(0 0)"/><path class="cls-2" d="M103.85,106.84c3.47-4,14.45-4.53,21.09.66" transform="translate(0 0)"/><path class="cls-2" d="M102.75,119.35c-3.92-2.27-5.73-11.62-1.72-17.3" transform="translate(0 0)"/><path class="cls-2" d="M92.1,111.8c-2,4.66,2.13,12.73,4.92,13.1" transform="translate(0 0)"/><path class="cls-1" d="M236.15,70.53h-6v9.23l-1.2.13V57.06h7.48c5.08,0,8.06,2.36,8.06,6.67S241.33,70.53,236.15,70.53ZM237,58.25h-6.87v11h6.41c4,0,6.64-2.14,6.64-5.54S240.85,58.25,237,58.25Z" transform="translate(0 0)"/><path class="cls-1" d="M258.07,80.34c-7,0-12-5-12-11.92s5-11.92,12-11.92,12.08,5,12.08,11.92S265.1,80.34,258.07,80.34Zm0-22.64a10.34,10.34,0,0,0-10.79,10.72,10.34,10.34,0,0,0,10.79,10.72c6.32,0,10.82-4.47,10.82-10.72S264.39,57.7,258.07,57.7Z" transform="translate(0 0)"/><path class="cls-1" d="M287.71,79.92a12.07,12.07,0,0,1-.26-3.27c-1.85-4.54-4.24-7.58-7.48-7.58h-5.64V79.76l-1.2.13V57.06h7.94c4.63,0,7.41,2.27,7.41,6.12,0,3.14-1.81,5.51-5.34,6.19,3.46,1.42,4.63,3.76,5.77,6.9a8.11,8.11,0,0,0,.36,3.24Zm-6.6-21.67h-6.77V68.52H281c3.79,0,6.22-1.94,6.22-5.09C287.22,60,285.12,58.25,281.1,58.25Z" transform="translate(0 0)"/><path class="cls-1" d="M298.91,58.25V79.76l-1.2.13V58.25h-8l.23-1.2h16.84v1.2Z" transform="translate(0 0)"/><path class="cls-1" d="M322,79.82H308.66V57l1.2-.13V78.62h12.37Z" transform="translate(0 0)"/><path class="cls-1" d="M343,80,339,71.76H327L323,80l-1.29-.19,11.08-23h.52l10.85,23ZM333,59l-5.41,11.53h10.69Z" transform="translate(0 0)"/><path class="cls-1" d="M364.1,80.08l-17-20.7V79.76l-1.2.13v-23h.62l17,20.6V57l1.2-.13V80.08Z" transform="translate(0 0)"/><path class="cls-1" d="M375.37,79.82h-6.61V57.06h7.52c6.9,0,11.33,4.37,11.33,11.4C387.62,75.29,382.89,79.82,375.37,79.82Zm.68-21.57H370V78.62h5.34c6.83,0,11-3.85,11-10.17C386.35,62,382.63,58.25,376.06,58.25Z" transform="translate(0 0)"/><path class="cls-1" d="M254.11,166.61,251.44,161h-8.22l-2.69,5.62-.88-.13,7.54-15.63h.35l7.39,15.63Zm-6.75-14.29-3.68,7.85H251Z" transform="translate(0 0)"/><path class="cls-1" d="M261.41,166.83c-3.33,0-5.51-1.79-5.87-4.41l.71-.35c.13,2.25,1.94,3.95,5.33,3.95,2.76,0,4.72-1.41,4.72-3.46,0-5.2-10.36-2-10.36-7.83,0-2.58,2.18-4.12,5.51-4.12,3.06,0,4.74,1.46,5.34,3.6l-.62.42c-.26-2.05-2-3.2-4.72-3.2s-4.65,1.17-4.65,3.27c0,5,10.36,1.81,10.36,7.78C267.17,165.13,264.85,166.83,261.41,166.83Z" transform="translate(0 0)"/><path class="cls-1" d="M274.7,166.83c-3.33,0-5.51-1.79-5.86-4.41l.71-.35c.13,2.25,1.94,3.95,5.33,3.95,2.76,0,4.72-1.41,4.72-3.46,0-5.2-10.36-2-10.36-7.83,0-2.58,2.18-4.12,5.51-4.12,3.07,0,4.74,1.46,5.34,3.6l-.62.42c-.26-2.05-2-3.2-4.72-3.2s-4.65,1.17-4.65,3.27c0,5,10.36,1.81,10.36,7.78C280.46,165.13,278.15,166.83,274.7,166.83Z" transform="translate(0 0)"/><path class="cls-1" d="M290.23,166.83a8.11,8.11,0,1,1,8.22-8.11A7.85,7.85,0,0,1,290.23,166.83Zm0-15.41a7.3,7.3,0,1,0,7.36,7.3A7,7,0,0,0,290.23,151.42Z" transform="translate(0 0)"/><path class="cls-1" d="M307.8,166.83a7.76,7.76,0,0,1-8.09-8,8.08,8.08,0,0,1,8.23-8.18c2.65,0,4.94,1.39,5.44,3.35l-.18.66a5.62,5.62,0,0,0-5.36-3.2,7.13,7.13,0,0,0-7.28,7.32,7,7,0,0,0,7.14,7.28,5.6,5.6,0,0,0,5.64-4l.18.66A5.64,5.64,0,0,1,307.8,166.83Z" transform="translate(0 0)"/><path class="cls-1" d="M315.81,166.52V151l.79-.09v15.57Z" transform="translate(0 0)"/><path class="cls-1" d="M332.58,166.61,329.91,161h-8.23L319,166.61l-.88-.13,7.54-15.63H326l7.39,15.63Zm-6.75-14.29-3.68,7.85h7.28Z" transform="translate(0 0)"/><path class="cls-1" d="M336.94,151.8v14.64l-.82.09V151.8h-5.45l.15-.82H342.3v.82Z" transform="translate(0 0)"/><path class="cls-1" d="M343.52,166.52V151l.79-.09v15.57Z" transform="translate(0 0)"/><path class="cls-1" d="M355,166.83a8.11,8.11,0,1,1,8.22-8.11A7.85,7.85,0,0,1,355,166.83Zm0-15.41a7.3,7.3,0,1,0,7.36,7.3A7,7,0,0,0,355,151.42Z" transform="translate(0 0)"/><path class="cls-1" d="M377.62,166.66,366,152.57v13.87l-.81.09V150.85h.42l11.55,14V151l.82-.09v15.79Z" transform="translate(0 0)"/></svg>